HIERARCHY
ROOT hip
{
	OFFSET 0.000000 0.000000 0.000000 
	CHANNELS 6 Xposition Yposition Zposition Xrotation Zrotation Yrotation
	JOINT abdomen
	{
		OFFSET 0.000000 3.402643 0.000000 
		CHANNELS 3 Xrotation Zrotation Yrotation
		JOINT chest
		{
			OFFSET 0.000000 8.438565 -0.680529 
			CHANNELS 3 Xrotation Zrotation Yrotation
			JOINT neck
			{
				OFFSET 0.000000 10.207942 -0.272212 
				CHANNELS 3 Xrotation Zrotation Yrotation
				JOINT head
				{
					OFFSET 0.000000 3.130431 0.000000 
					CHANNELS 3 Xrotation Zrotation Yrotation
					End Site
					{
						OFFSET 0.000000 3.130435 0.000000 
					}
				}
			}
			JOINT lCollar
			{
				OFFSET 3.470700 6.669187 -0.816635 
				CHANNELS 3 Yrotation Zrotation Xrotation
				JOINT lShldr
				{
					OFFSET 3.198488 0.000000 0.000000 
					CHANNELS 3 Zrotation Yrotation Xrotation
					JOINT lForeArm
					{
						OFFSET 10.139888 0.000000 0.000000 
						CHANNELS 3 Yrotation Zrotation Xrotation
						JOINT lHand
						{
							OFFSET 8.370511 0.000000 0.000000 
							CHANNELS 3 Zrotation Yrotation Xrotation
							End Site
							{
								OFFSET 4.083176 0.000000 0.000000 
							}
						}
					}
				}
			}
			JOINT rCollar
			{
				OFFSET -3.470700 6.669187 -0.816635 
				CHANNELS 3 Yrotation Zrotation Xrotation
				JOINT rShldr
				{
					OFFSET -3.198488 0.000000 0.000000 
					CHANNELS 3 Zrotation Yrotation Xrotation
					JOINT rForeArm
					{
						OFFSET -10.139888 0.000000 0.000000 
						CHANNELS 3 Yrotation Zrotation Xrotation
						JOINT rHand
						{
							OFFSET -8.370511 0.000000 0.000000 
							CHANNELS 3 Zrotation Yrotation Xrotation
							End Site
							{
								OFFSET -4.083176 0.000000 0.000000 
							}
						}
					}
				}
			}
		}
	}
	JOINT lThigh
	{
		OFFSET 5.308129 -1.633274 1.361059 
		CHANNELS 3 Xrotation Zrotation Yrotation
		JOINT lShin
		{
			OFFSET -2.041588 -20.007561 0.000000 
			CHANNELS 3 Xrotation Zrotation Yrotation
			JOINT lFoot
			{
				OFFSET 0.000000 -19.190928 -1.224953 
				CHANNELS 3 Xrotation Yrotation Zrotation
				End Site
				{
					OFFSET 0.000000 -2.449906 4.627600 
				}
			}
		}
	}
	JOINT rThigh
	{
		OFFSET -5.308129 -1.633274 1.361059 
		CHANNELS 3 Xrotation Zrotation Yrotation
		JOINT rShin
		{
			OFFSET 2.041588 -20.007561 0.000000 
			CHANNELS 3 Xrotation Zrotation Yrotation
			JOINT rFoot
			{
				OFFSET 0.000000 -19.190928 -1.224953 
				CHANNELS 3 Xrotation Yrotation Zrotation
				End Site
				{
					OFFSET 0.000000 -2.449906 4.627600 
				}
			}
		}
	}
}
MOTION
Frames: 16
Frame Time: 0.033333
-21.055370 52.994884 18.410067 3.496094 -2.646484 -30.605917 21.479994 -10.914001 -3.824172 -14.531251 14.843750 8.945313 51.063168 8.107644 2.471410 -60.195316 1.621094 -15.332033 2.000000 -2.000000 0.000000 -89.746094 8.056641 12.988282 -42.144432 -2.099256 -1.829692 -21.780066 47.387337 -21.602203 -2.000000 2.000000 0.000000 93.623047 -16.464844 -9.729331 53.538391 1.635209 -2.092083 -19.874691 -53.536507 25.463654 31.832947 11.865169 6.339347 -3.427791 -5.112877 0.785875 22.664267 1.748530 0.902178 -2.582303 5.165940 -33.091709 -0.404509 5.422028 -0.190697 10.394910 -10.276482 -6.618933 
-22.338682 53.057899 19.280266 3.671875 -3.359375 -31.524012 21.540937 -11.517264 -3.109434 -14.726564 14.677735 9.199221 51.063168 8.107644 2.471410 -60.312504 2.167969 -15.771484 2.000000 -2.000000 0.000000 -89.765625 8.115234 13.009193 -41.968369 -2.108435 -1.819376 -22.105448 47.483250 -22.241941 -2.000000 2.000000 0.000000 92.929688 -14.580079 -10.510271 53.718708 1.635116 -2.258323 -19.350021 -52.265255 23.947199 22.464468 15.339244 7.434201 10.891744 -5.281693 -0.997339 19.364765 0.768437 -0.300631 -0.590031 6.802659 -31.848261 -0.570244 5.420870 -0.019445 9.855439 -10.300596 -5.978223 
-23.516684 53.113052 20.010674 3.681641 -4.052734 -32.617188 21.808037 -12.015685 -2.564210 -14.931641 14.345704 9.416481 51.063168 8.107644 2.471410 -60.517578 2.011719 -15.751953 2.000000 -2.000000 0.000000 -89.814453 8.310547 13.222658 -41.968369 -2.108435 -1.819376 -22.320581 47.410404 -22.715059 -2.000000 2.000000 0.000000 91.875000 -12.734375 -10.585938 53.889797 1.566397 -2.086306 -18.497675 -50.079441 22.066404 11.117801 18.392679 7.962249 27.636332 -4.670017 -2.513666 14.430387 -0.200986 -0.347428 1.358578 7.995459 -30.266081 -1.097157 5.422186 0.052636 9.756533 -10.694600 -5.647268 
-24.499470 53.160320 20.600258 3.867188 -4.228516 -33.721424 21.873230 -12.606609 -1.853776 -15.136719 14.199219 9.680130 51.063168 8.107644 2.471410 -61.093746 1.357422 -15.468517 2.000000 -2.000000 0.000000 -89.824219 8.427734 13.427734 -42.144432 -2.099256 -1.829692 -22.258795 47.193882 -22.146269 -2.000000 2.000000 0.000000 90.156250 -10.986327 -9.882813 53.894783 1.616185 -2.269203 -18.140011 -49.124989 21.000837 1.053582 20.961746 8.141053 42.028824 -3.843253 -3.532895 9.466031 -0.411561 -0.958756 2.648803 8.938001 -28.869703 -1.098523 5.428090 -0.093889 9.839131 -10.456278 -4.329533 
-25.437939 53.215473 21.101198 3.857421 -4.052734 -35.468754 22.100868 -13.185050 -1.151453 -15.341797 13.867188 9.894919 51.063168 8.107644 2.471410 -61.718750 0.185547 -14.736329 2.000000 -2.000000 0.000000 -89.824219 8.427734 13.427734 -42.496277 -2.090076 -1.840008 -22.151463 46.966473 -20.944414 -2.000000 2.000000 0.000000 88.007813 -8.515625 -7.979959 53.878654 1.426499 -2.035772 -17.657091 -49.330982 21.002045 -7.294622 22.564856 7.739267 51.535118 -3.419396 -4.142522 5.883268 -0.105978 -1.017576 3.780549 9.182773 -27.528368 -0.755932 5.420869 0.091584 9.875529 -10.438668 -4.925947 
-26.419573 53.286362 21.639631 3.496094 -3.173828 -38.018120 22.325857 -13.766939 -0.438028 -15.732422 13.554688 10.253907 51.063168 8.107644 2.471410 -62.373047 -1.298828 -14.062502 2.000000 -2.000000 0.000000 -89.824219 8.427734 13.427734 -42.848381 -2.081467 -1.860069 -21.214760 46.592022 -18.586876 -2.000000 2.000000 0.000000 85.527344 -6.054687 -5.898438 53.702591 1.435679 -2.025459 -17.840178 -50.135452 21.964657 -11.853280 22.426071 8.010537 52.966095 -3.607327 -4.049638 4.447027 0.652606 -0.933911 4.755829 8.597785 -25.917425 -0.358133 5.432167 0.145023 9.159529 -9.573181 -5.670126 
-27.431175 53.317883 22.256174 2.978516 -1.943359 -40.732754 22.585562 -14.262011 0.101597 -15.917970 13.398438 10.341799 51.063168 8.107644 2.471410 -63.037113 -2.802734 -13.017579 2.000000 -2.000000 0.000000 -89.824219 8.427734 13.427734 -43.376293 -2.063107 -1.880700 -20.410788 46.299690 -16.265881 -2.000000 2.000000 0.000000 82.998047 -3.535156 -3.125602 53.538174 1.605393 -2.084038 -18.419558 -50.771622 22.973236 -13.825411 21.029007 9.507709 47.999508 -3.477165 -3.861441 3.641638 1.494886 -1.179248 5.847671 7.501525 -23.998085 0.169611 5.442195 -0.297959 8.251840 -8.684243 -6.376884 
-28.436993 53.286362 23.021067 2.636719 -0.703120 -43.125343 22.648443 -14.767322 0.666149 -16.123047 13.066406 10.566407 51.063168 8.107644 2.471410 -63.759769 -4.628906 -12.031249 2.000000 -2.000000 0.000000 -89.824219 8.427734 13.427734 -43.728405 -2.054497 -1.900761 -19.924456 46.278904 -14.187000 -2.000000 2.000000 0.000000 80.917969 -1.152344 -1.875000 53.364082 1.853666 -2.147827 -18.536200 -50.988804 23.988552 -14.929720 19.312702 10.378763 40.620953 -4.227363 -3.379069 3.160859 2.451322 -1.069457 6.795285 6.568897 -22.945801 0.676031 5.419870 0.204253 6.746404 -7.825845 -7.065774 
-29.439104 53.223343 24.000265 2.275391 0.000000 -44.482418 22.730116 -15.016209 1.136025 -16.318357 12.910156 10.832261 51.063168 8.107644 2.471410 -64.316406 -6.474609 -10.830078 2.000000 -2.000000 0.000000 -89.843750 8.554687 13.634264 -44.256557 -2.046456 -1.930567 -18.814705 46.225368 -12.610301 -2.000000 2.000000 0.000000 79.726563 0.859375 -1.181493 53.537922 1.595076 -2.074859 -18.842609 -50.476925 23.880527 -16.480078 17.307993 10.878993 34.642693 -4.386266 -3.058431 2.775437 3.841532 -0.811616 7.742604 5.661891 -21.755362 1.407129 5.417059 0.120379 5.308920 -7.307975 -6.872301 
-30.417377 53.065784 25.128859 2.265625 0.498047 -45.156208 22.837629 -15.425536 1.530349 -16.513672 12.753907 10.927734 51.063168 8.107644 2.471410 -64.843750 -7.949218 -9.707032 2.000000 -2.000000 0.000000 -89.843750 8.720703 14.005386 -44.608406 -2.037276 -1.940883 -17.900875 46.108665 -11.514503 -2.000000 2.000000 0.000000 79.257813 2.548828 -1.181206 53.702354 1.415613 -2.016848 -19.058104 -49.191498 23.550785 -18.745832 15.698107 11.128978 30.410894 -4.488101 -2.728426 2.371318 4.521963 0.055151 8.686980 4.790411 -20.591814 2.463110 5.766903 -0.042097 3.888183 -7.366188 -6.971874 
-31.391369 52.845200 26.314848 2.460938 1.044922 -45.683594 22.810429 -15.261640 1.596794 -16.347656 12.568359 11.103516 51.063168 8.107644 2.471410 -65.214844 -9.453123 -8.408204 2.000000 -2.000000 0.000000 -89.853516 8.837891 14.210486 -44.784454 -2.037845 -1.950628 -17.435846 46.245884 -10.775445 -2.000000 2.000000 0.000000 78.828125 3.603516 -1.083371 53.883205 1.406912 -2.203147 -19.465929 -48.261692 23.981241 -21.264704 13.784488 11.102958 26.521755 -4.750422 -2.468315 1.339276 6.048818 0.603198 9.361766 4.255029 -20.636467 4.228393 5.322446 0.553215 1.986830 -7.416187 -7.206964 
-32.339211 52.561588 27.623724 2.636719 1.376942 -45.986317 22.646500 -15.021237 1.512013 -16.347656 12.568359 10.927735 51.063168 8.107644 2.471410 -65.742188 -10.771483 -7.109375 2.000000 -2.000000 0.000000 -89.912109 9.082031 14.384765 -44.784454 -2.037845 -1.950628 -17.330875 46.341499 -11.013845 -2.000000 2.000000 0.000000 78.417969 4.599609 -0.966014 53.879829 1.526832 -2.078829 -19.409464 -48.094467 24.117952 -22.943068 11.967732 11.018055 22.295277 -4.833514 -2.106150 0.994156 6.834382 2.329402 10.393414 3.540242 -20.496258 5.467021 5.333204 0.648479 0.390989 -7.330331 -7.689811 
-33.249790 52.230709 29.025759 2.812500 1.748047 -46.142281 22.344742 -14.695209 1.284525 -15.986329 12.539063 11.005859 51.063168 8.107644 2.471410 -66.230476 -11.738280 -6.230469 2.000000 -2.000000 0.000000 -89.912109 9.082031 14.384765 -44.608406 -2.037276 -1.940883 -18.247475 46.799679 -11.789120 -2.000000 2.000000 0.000000 78.134766 5.761718 -0.868160 54.235054 1.387982 -2.214027 -19.733315 -48.013081 24.843019 -23.869759 10.219721 11.248833 17.719398 -4.993171 -1.722911 1.139560 7.337111 3.160226 11.441667 2.849297 -20.561316 6.852885 5.304068 0.618339 -1.001780 -7.207601 -7.903192 
-34.082382 51.860432 30.464125 2.978516 1.914063 -46.152344 22.237671 -14.285782 0.890074 -15.800782 12.539062 10.878907 51.063168 8.107644 2.471410 -66.552734 -12.548827 -5.595704 2.000000 -2.000000 0.000000 -89.892578 9.013672 14.366763 -44.432343 -2.046455 -1.930567 -18.974831 47.147205 -12.478918 -2.000000 2.000000 0.000000 78.115234 6.337891 -0.722656 54.242096 1.607098 -2.113274 -19.388119 -48.162430 24.792479 -22.922344 8.257127 11.466909 11.374081 -5.136487 -1.211050 3.680634 7.514555 4.209484 12.478666 1.952089 -20.826078 8.455772 5.285936 0.898685 -2.238513 -6.860905 -8.378880 
-34.858154 51.474411 31.876688 3.339844 2.275391 -46.093361 21.926054 -13.952820 0.644176 -15.615234 12.685547 10.771484 51.063168 8.107644 2.471410 -66.474609 -13.251953 -4.912110 2.000000 -2.000000 0.000000 -89.882813 9.072266 14.552320 -44.256557 -2.046456 -1.930567 -19.448402 47.411526 -13.098030 -2.000000 2.000000 0.000000 78.242188 6.093750 -0.263672 54.235054 1.387982 -2.214027 -20.289085 -48.259045 25.937181 -20.982340 6.316247 11.521963 4.135922 -5.232944 -0.592990 7.275249 7.470490 4.883621 13.405573 1.180382 -20.942560 9.884593 5.258581 0.891336 -2.568994 -6.291956 -8.503668 
-35.584743 51.088379 33.212536 3.339844 2.617188 -45.897995 21.612383 -13.879737 0.504711 -15.615234 12.685547 10.771484 51.063168 8.107644 2.471410 -66.035156 -14.003905 -4.687501 2.000000 -2.000000 0.000000 -89.902344 9.130859 14.570312 -44.080231 -2.055066 -1.910506 -19.633713 47.181114 -13.530761 -2.000000 2.000000 0.000000 78.320313 5.419922 -0.009766 54.058998 1.397163 -2.203714 -20.211210 -48.931587 26.375881 -18.755560 4.402570 11.468846 -2.021629 -5.256700 -0.018413 10.253982 7.166610 5.720946 14.463870 0.320007 -21.596605 11.629217 5.215486 1.209541 -1.973139 -5.992626 -8.848351 
